solid OpenSCAD_Model
  facet normal -1 0 0
    outer loop
      vertex -120.5 -57 -66.5
      vertex -120.5 57 66.5
      vertex -120.5 57 -66.5
    endloop
  endfacet
  facet normal -1 -0 0
    outer loop
      vertex -120.5 57 66.5
      vertex -120.5 -57 -66.5
      vertex -120.5 -57 66.5
    endloop
  endfacet
  facet normal 0 0 1
    outer loop
      vertex 120.5 57 66.5
      vertex 20.5 0 66.5
      vertex 120.5 -57 66.5
    endloop
  endfacet
  facet normal 0 0 1
    outer loop
      vertex 120.5 57 66.5
      vertex 20.052 4.26219 66.5
      vertex 20.5 0 66.5
    endloop
  endfacet
  facet normal 0 0 1
    outer loop
      vertex 120.5 57 66.5
      vertex 18.7277 8.3381 66.5
      vertex 20.052 4.26219 66.5
    endloop
  endfacet
  facet normal 0 0 1
    outer loop
      vertex 120.5 57 66.5
      vertex 16.5848 12.0496 66.5
      vertex 18.7277 8.3381 66.5
    endloop
  endfacet
  facet normal 0 0 1
    outer loop
      vertex 120.5 57 66.5
      vertex 13.7172 15.2345 66.5
      vertex 16.5848 12.0496 66.5
    endloop
  endfacet
  facet normal 0 0 1
    outer loop
      vertex 120.5 57 66.5
      vertex 10.25 17.7535 66.5
      vertex 13.7172 15.2345 66.5
    endloop
  endfacet
  facet normal 0 0 1
    outer loop
      vertex 120.5 57 66.5
      vertex 6.33485 19.4967 66.5
      vertex 10.25 17.7535 66.5
    endloop
  endfacet
  facet normal 0 0 1
    outer loop
      vertex 120.5 57 66.5
      vertex 2.14283 20.3877 66.5
      vertex 6.33485 19.4967 66.5
    endloop
  endfacet
  facet normal 0 0 1
    outer loop
      vertex 120.5 57 66.5
      vertex -2.14283 20.3877 66.5
      vertex 2.14283 20.3877 66.5
    endloop
  endfacet
  facet normal -0 0 1
    outer loop
      vertex -120.5 57 66.5
      vertex -2.14283 20.3877 66.5
      vertex 120.5 57 66.5
    endloop
  endfacet
  facet normal 0 0 1
    outer loop
      vertex -20.052 4.26219 66.5
      vertex -120.5 57 66.5
      vertex -20.5 0 66.5
    endloop
  endfacet
  facet normal 0 0 1
    outer loop
      vertex -18.7277 8.3381 66.5
      vertex -120.5 57 66.5
      vertex -20.052 4.26219 66.5
    endloop
  endfacet
  facet normal 0 0 1
    outer loop
      vertex -16.5848 12.0496 66.5
      vertex -120.5 57 66.5
      vertex -18.7277 8.3381 66.5
    endloop
  endfacet
  facet normal 0 0 1
    outer loop
      vertex -13.7172 15.2345 66.5
      vertex -120.5 57 66.5
      vertex -16.5848 12.0496 66.5
    endloop
  endfacet
  facet normal 0 0 1
    outer loop
      vertex -10.25 17.7535 66.5
      vertex -120.5 57 66.5
      vertex -13.7172 15.2345 66.5
    endloop
  endfacet
  facet normal 0 0 1
    outer loop
      vertex -6.33485 19.4967 66.5
      vertex -120.5 57 66.5
      vertex -10.25 17.7535 66.5
    endloop
  endfacet
  facet normal 0 0 1
    outer loop
      vertex -2.14283 20.3877 66.5
      vertex -120.5 57 66.5
      vertex -6.33485 19.4967 66.5
    endloop
  endfacet
  facet normal -0 0 1
    outer loop
      vertex 20.052 -4.26219 66.5
      vertex 120.5 -57 66.5
      vertex 20.5 0 66.5
    endloop
  endfacet
  facet normal -0 0 1
    outer loop
      vertex 18.7277 -8.3381 66.5
      vertex 120.5 -57 66.5
      vertex 20.052 -4.26219 66.5
    endloop
  endfacet
  facet normal -0 0 1
    outer loop
      vertex 16.5848 -12.0496 66.5
      vertex 120.5 -57 66.5
      vertex 18.7277 -8.3381 66.5
    endloop
  endfacet
  facet normal -0 0 1
    outer loop
      vertex 13.7172 -15.2345 66.5
      vertex 120.5 -57 66.5
      vertex 16.5848 -12.0496 66.5
    endloop
  endfacet
  facet normal -0 0 1
    outer loop
      vertex 10.25 -17.7535 66.5
      vertex 120.5 -57 66.5
      vertex 13.7172 -15.2345 66.5
    endloop
  endfacet
  facet normal -0 0 1
    outer loop
      vertex 6.33485 -19.4967 66.5
      vertex 120.5 -57 66.5
      vertex 10.25 -17.7535 66.5
    endloop
  endfacet
  facet normal -0 0 1
    outer loop
      vertex 2.14283 -20.3877 66.5
      vertex 120.5 -57 66.5
      vertex 6.33485 -19.4967 66.5
    endloop
  endfacet
  facet normal -0 0 1
    outer loop
      vertex -2.14283 -20.3877 66.5
      vertex 120.5 -57 66.5
      vertex 2.14283 -20.3877 66.5
    endloop
  endfacet
  facet normal 0 0 1
    outer loop
      vertex -120.5 -57 66.5
      vertex -2.14283 -20.3877 66.5
      vertex -6.33485 -19.4967 66.5
    endloop
  endfacet
  facet normal 0 0 1
    outer loop
      vertex -120.5 -57 66.5
      vertex -20.5 0 66.5
      vertex -120.5 57 66.5
    endloop
  endfacet
  facet normal 0 0 1
    outer loop
      vertex -20.5 0 66.5
      vertex -120.5 -57 66.5
      vertex -20.052 -4.26219 66.5
    endloop
  endfacet
  facet normal 0 0 1
    outer loop
      vertex -20.052 -4.26219 66.5
      vertex -120.5 -57 66.5
      vertex -18.7277 -8.3381 66.5
    endloop
  endfacet
  facet normal 0 0 1
    outer loop
      vertex -18.7277 -8.3381 66.5
      vertex -120.5 -57 66.5
      vertex -16.5848 -12.0496 66.5
    endloop
  endfacet
  facet normal 0 0 1
    outer loop
      vertex -16.5848 -12.0496 66.5
      vertex -120.5 -57 66.5
      vertex -13.7172 -15.2345 66.5
    endloop
  endfacet
  facet normal 0 0 1
    outer loop
      vertex -2.14283 -20.3877 66.5
      vertex -120.5 -57 66.5
      vertex 120.5 -57 66.5
    endloop
  endfacet
  facet normal 0 0 1
    outer loop
      vertex -10.25 -17.7535 66.5
      vertex -120.5 -57 66.5
      vertex -6.33485 -19.4967 66.5
    endloop
  endfacet
  facet normal 0 0 1
    outer loop
      vertex -13.7172 -15.2345 66.5
      vertex -120.5 -57 66.5
      vertex -10.25 -17.7535 66.5
    endloop
  endfacet
  facet normal 1 -0 0
    outer loop
      vertex 120.5 -57 66.5
      vertex 120.5 57 -66.5
      vertex 120.5 57 66.5
    endloop
  endfacet
  facet normal 1 0 0
    outer loop
      vertex 120.5 57 -66.5
      vertex 120.5 -57 66.5
      vertex 120.5 -57 -66.5
    endloop
  endfacet
  facet normal 0 1 -0
    outer loop
      vertex 120.5 57 -66.5
      vertex -120.5 57 66.5
      vertex 120.5 57 66.5
    endloop
  endfacet
  facet normal 0 1 0
    outer loop
      vertex -120.5 57 66.5
      vertex 120.5 57 -66.5
      vertex -120.5 57 -66.5
    endloop
  endfacet
  facet normal 0 0 -1
    outer loop
      vertex -120.5 -57 -66.5
      vertex 120.5 57 -66.5
      vertex 120.5 -57 -66.5
    endloop
  endfacet
  facet normal -0 0 -1
    outer loop
      vertex 120.5 57 -66.5
      vertex -120.5 -57 -66.5
      vertex -120.5 57 -66.5
    endloop
  endfacet
  facet normal 0 -1 0
    outer loop
      vertex -120.5 -57 -66.5
      vertex 120.5 -57 66.5
      vertex -120.5 -57 66.5
    endloop
  endfacet
  facet normal 0 -1 -0
    outer loop
      vertex 120.5 -57 66.5
      vertex -120.5 -57 -66.5
      vertex 120.5 -57 -66.5
    endloop
  endfacet
  facet normal -0.994521 -0.104534 0
    outer loop
      vertex 20.5 0 -62
      vertex 20.052 4.26219 66.5
      vertex 20.052 4.26219 -62
    endloop
  endfacet
  facet normal -0.994521 -0.104534 0
    outer loop
      vertex 20.052 4.26219 66.5
      vertex 20.5 0 -62
      vertex 20.5 0 66.5
    endloop
  endfacet
  facet normal 0.994521 -0.104534 0
    outer loop
      vertex -20.5 0 66.5
      vertex -20.052 4.26219 -62
      vertex -20.052 4.26219 66.5
    endloop
  endfacet
  facet normal 0.994521 -0.104534 0
    outer loop
      vertex -20.052 4.26219 -62
      vertex -20.5 0 66.5
      vertex -20.5 0 -62
    endloop
  endfacet
  facet normal 0 -1 0
    outer loop
      vertex -2.14283 20.3877 -62
      vertex 2.14283 20.3877 66.5
      vertex -2.14283 20.3877 66.5
    endloop
  endfacet
  facet normal 0 -1 -0
    outer loop
      vertex 2.14283 20.3877 66.5
      vertex -2.14283 20.3877 -62
      vertex 2.14283 20.3877 -62
    endloop
  endfacet
  facet normal 0 1 -0
    outer loop
      vertex 2.14283 -20.3877 -62
      vertex -2.14283 -20.3877 66.5
      vertex 2.14283 -20.3877 66.5
    endloop
  endfacet
  facet normal 0 1 0
    outer loop
      vertex -2.14283 -20.3877 66.5
      vertex 2.14283 -20.3877 -62
      vertex -2.14283 -20.3877 -62
    endloop
  endfacet
  facet normal -0.743156 -0.669118 0
    outer loop
      vertex 16.5848 12.0496 -62
      vertex 13.7172 15.2345 66.5
      vertex 13.7172 15.2345 -62
    endloop
  endfacet
  facet normal -0.743156 -0.669118 0
    outer loop
      vertex 13.7172 15.2345 66.5
      vertex 16.5848 12.0496 -62
      vertex 16.5848 12.0496 66.5
    endloop
  endfacet
  facet normal -0.951059 -0.309008 0
    outer loop
      vertex 20.052 4.26219 -62
      vertex 18.7277 8.3381 66.5
      vertex 18.7277 8.3381 -62
    endloop
  endfacet
  facet normal -0.951059 -0.309008 0
    outer loop
      vertex 18.7277 8.3381 66.5
      vertex 20.052 4.26219 -62
      vertex 20.052 4.26219 66.5
    endloop
  endfacet
  facet normal 0.587775 -0.809025 0
    outer loop
      vertex -13.7172 15.2345 -62
      vertex -10.25 17.7535 66.5
      vertex -13.7172 15.2345 66.5
    endloop
  endfacet
  facet normal 0.587775 -0.809025 0
    outer loop
      vertex -10.25 17.7535 66.5
      vertex -13.7172 15.2345 -62
      vertex -10.25 17.7535 -62
    endloop
  endfacet
  facet normal 0.207902 -0.97815 0
    outer loop
      vertex -6.33485 19.4967 -62
      vertex -2.14283 20.3877 66.5
      vertex -6.33485 19.4967 66.5
    endloop
  endfacet
  facet normal 0.207902 -0.97815 0
    outer loop
      vertex -2.14283 20.3877 66.5
      vertex -6.33485 19.4967 -62
      vertex -2.14283 20.3877 -62
    endloop
  endfacet
  facet normal -0.951059 0.309008 0
    outer loop
      vertex 18.7277 -8.3381 -62
      vertex 20.052 -4.26219 66.5
      vertex 20.052 -4.26219 -62
    endloop
  endfacet
  facet normal -0.951059 0.309008 0
    outer loop
      vertex 20.052 -4.26219 66.5
      vertex 18.7277 -8.3381 -62
      vertex 18.7277 -8.3381 66.5
    endloop
  endfacet
  facet normal -0.866019 -0.500011 0
    outer loop
      vertex 18.7277 8.3381 -62
      vertex 16.5848 12.0496 66.5
      vertex 16.5848 12.0496 -62
    endloop
  endfacet
  facet normal -0.866019 -0.500011 0
    outer loop
      vertex 16.5848 12.0496 66.5
      vertex 18.7277 8.3381 -62
      vertex 18.7277 8.3381 66.5
    endloop
  endfacet
  facet normal -0.406749 -0.91354 0
    outer loop
      vertex 6.33485 19.4967 -62
      vertex 10.25 17.7535 66.5
      vertex 6.33485 19.4967 66.5
    endloop
  endfacet
  facet normal -0.406749 -0.91354 -0
    outer loop
      vertex 10.25 17.7535 66.5
      vertex 6.33485 19.4967 -62
      vertex 10.25 17.7535 -62
    endloop
  endfacet
  facet normal -0.207902 -0.97815 0
    outer loop
      vertex 2.14283 20.3877 -62
      vertex 6.33485 19.4967 66.5
      vertex 2.14283 20.3877 66.5
    endloop
  endfacet
  facet normal -0.207902 -0.97815 -0
    outer loop
      vertex 6.33485 19.4967 66.5
      vertex 2.14283 20.3877 -62
      vertex 6.33485 19.4967 -62
    endloop
  endfacet
  facet normal -0.587775 -0.809025 0
    outer loop
      vertex 10.25 17.7535 -62
      vertex 13.7172 15.2345 66.5
      vertex 10.25 17.7535 66.5
    endloop
  endfacet
  facet normal -0.587775 -0.809025 -0
    outer loop
      vertex 13.7172 15.2345 66.5
      vertex 10.25 17.7535 -62
      vertex 13.7172 15.2345 -62
    endloop
  endfacet
  facet normal 0.866019 -0.500011 0
    outer loop
      vertex -18.7277 8.3381 66.5
      vertex -16.5848 12.0496 -62
      vertex -16.5848 12.0496 66.5
    endloop
  endfacet
  facet normal 0.866019 -0.500011 0
    outer loop
      vertex -16.5848 12.0496 -62
      vertex -18.7277 8.3381 66.5
      vertex -18.7277 8.3381 -62
    endloop
  endfacet
  facet normal 0.743156 -0.669118 0
    outer loop
      vertex -16.5848 12.0496 66.5
      vertex -13.7172 15.2345 -62
      vertex -13.7172 15.2345 66.5
    endloop
  endfacet
  facet normal 0.743156 -0.669118 0
    outer loop
      vertex -13.7172 15.2345 -62
      vertex -16.5848 12.0496 66.5
      vertex -16.5848 12.0496 -62
    endloop
  endfacet
  facet normal 0.951059 -0.309008 0
    outer loop
      vertex -20.052 4.26219 66.5
      vertex -18.7277 8.3381 -62
      vertex -18.7277 8.3381 66.5
    endloop
  endfacet
  facet normal 0.951059 -0.309008 0
    outer loop
      vertex -18.7277 8.3381 -62
      vertex -20.052 4.26219 66.5
      vertex -20.052 4.26219 -62
    endloop
  endfacet
  facet normal 0.406749 -0.91354 0
    outer loop
      vertex -10.25 17.7535 -62
      vertex -6.33485 19.4967 66.5
      vertex -10.25 17.7535 66.5
    endloop
  endfacet
  facet normal 0.406749 -0.91354 0
    outer loop
      vertex -6.33485 19.4967 66.5
      vertex -10.25 17.7535 -62
      vertex -6.33485 19.4967 -62
    endloop
  endfacet
  facet normal -0.994521 0.104534 0
    outer loop
      vertex 20.052 -4.26219 -62
      vertex 20.5 0 66.5
      vertex 20.5 0 -62
    endloop
  endfacet
  facet normal -0.994521 0.104534 0
    outer loop
      vertex 20.5 0 66.5
      vertex 20.052 -4.26219 -62
      vertex 20.052 -4.26219 66.5
    endloop
  endfacet
  facet normal 0 0 1
    outer loop
      vertex 20.052 4.26219 -62
      vertex 20.052 -4.26219 -62
      vertex 20.5 0 -62
    endloop
  endfacet
  facet normal 0 0 1
    outer loop
      vertex 18.7277 8.3381 -62
      vertex 20.052 -4.26219 -62
      vertex 20.052 4.26219 -62
    endloop
  endfacet
  facet normal 0 0 1
    outer loop
      vertex 18.7277 8.3381 -62
      vertex 18.7277 -8.3381 -62
      vertex 20.052 -4.26219 -62
    endloop
  endfacet
  facet normal 0 0 1
    outer loop
      vertex 16.5848 12.0496 -62
      vertex 18.7277 -8.3381 -62
      vertex 18.7277 8.3381 -62
    endloop
  endfacet
  facet normal 0 0 1
    outer loop
      vertex 16.5848 12.0496 -62
      vertex 16.5848 -12.0496 -62
      vertex 18.7277 -8.3381 -62
    endloop
  endfacet
  facet normal 0 0 1
    outer loop
      vertex 13.7172 15.2345 -62
      vertex 16.5848 -12.0496 -62
      vertex 16.5848 12.0496 -62
    endloop
  endfacet
  facet normal 0 0 1
    outer loop
      vertex 13.7172 15.2345 -62
      vertex 13.7172 -15.2345 -62
      vertex 16.5848 -12.0496 -62
    endloop
  endfacet
  facet normal 0 0 1
    outer loop
      vertex 10.25 17.7535 -62
      vertex 13.7172 -15.2345 -62
      vertex 13.7172 15.2345 -62
    endloop
  endfacet
  facet normal 0 0 1
    outer loop
      vertex 10.25 17.7535 -62
      vertex 10.25 -17.7535 -62
      vertex 13.7172 -15.2345 -62
    endloop
  endfacet
  facet normal 0 0 1
    outer loop
      vertex 6.33485 19.4967 -62
      vertex 10.25 -17.7535 -62
      vertex 10.25 17.7535 -62
    endloop
  endfacet
  facet normal 0 0 1
    outer loop
      vertex 6.33485 19.4967 -62
      vertex 6.33485 -19.4967 -62
      vertex 10.25 -17.7535 -62
    endloop
  endfacet
  facet normal 0 0 1
    outer loop
      vertex 2.14283 20.3877 -62
      vertex 6.33485 -19.4967 -62
      vertex 6.33485 19.4967 -62
    endloop
  endfacet
  facet normal 0 0 1
    outer loop
      vertex 2.14283 20.3877 -62
      vertex 2.14283 -20.3877 -62
      vertex 6.33485 -19.4967 -62
    endloop
  endfacet
  facet normal -0 0 1
    outer loop
      vertex -2.14283 20.3877 -62
      vertex 2.14283 -20.3877 -62
      vertex 2.14283 20.3877 -62
    endloop
  endfacet
  facet normal 0 0 1
    outer loop
      vertex -2.14283 20.3877 -62
      vertex -2.14283 -20.3877 -62
      vertex 2.14283 -20.3877 -62
    endloop
  endfacet
  facet normal -0 0 1
    outer loop
      vertex -6.33485 19.4967 -62
      vertex -2.14283 -20.3877 -62
      vertex -2.14283 20.3877 -62
    endloop
  endfacet
  facet normal 0 0 1
    outer loop
      vertex -6.33485 19.4967 -62
      vertex -6.33485 -19.4967 -62
      vertex -2.14283 -20.3877 -62
    endloop
  endfacet
  facet normal -0 0 1
    outer loop
      vertex -10.25 17.7535 -62
      vertex -6.33485 -19.4967 -62
      vertex -6.33485 19.4967 -62
    endloop
  endfacet
  facet normal 0 0 1
    outer loop
      vertex -10.25 17.7535 -62
      vertex -10.25 -17.7535 -62
      vertex -6.33485 -19.4967 -62
    endloop
  endfacet
  facet normal -0 0 1
    outer loop
      vertex -13.7172 15.2345 -62
      vertex -10.25 -17.7535 -62
      vertex -10.25 17.7535 -62
    endloop
  endfacet
  facet normal 0 0 1
    outer loop
      vertex -13.7172 15.2345 -62
      vertex -13.7172 -15.2345 -62
      vertex -10.25 -17.7535 -62
    endloop
  endfacet
  facet normal -0 0 1
    outer loop
      vertex -16.5848 12.0496 -62
      vertex -13.7172 -15.2345 -62
      vertex -13.7172 15.2345 -62
    endloop
  endfacet
  facet normal 0 0 1
    outer loop
      vertex -16.5848 12.0496 -62
      vertex -16.5848 -12.0496 -62
      vertex -13.7172 -15.2345 -62
    endloop
  endfacet
  facet normal -0 0 1
    outer loop
      vertex -18.7277 8.3381 -62
      vertex -16.5848 -12.0496 -62
      vertex -16.5848 12.0496 -62
    endloop
  endfacet
  facet normal 0 0 1
    outer loop
      vertex -18.7277 8.3381 -62
      vertex -18.7277 -8.3381 -62
      vertex -16.5848 -12.0496 -62
    endloop
  endfacet
  facet normal -0 0 1
    outer loop
      vertex -20.052 4.26219 -62
      vertex -18.7277 -8.3381 -62
      vertex -18.7277 8.3381 -62
    endloop
  endfacet
  facet normal 0 0 1
    outer loop
      vertex -20.052 4.26219 -62
      vertex -20.052 -4.26219 -62
      vertex -18.7277 -8.3381 -62
    endloop
  endfacet
  facet normal 0 -0 1
    outer loop
      vertex -20.052 -4.26219 -62
      vertex -20.052 4.26219 -62
      vertex -20.5 0 -62
    endloop
  endfacet
  facet normal -0.207902 0.97815 0
    outer loop
      vertex 6.33485 -19.4967 -62
      vertex 2.14283 -20.3877 66.5
      vertex 6.33485 -19.4967 66.5
    endloop
  endfacet
  facet normal -0.207902 0.97815 0
    outer loop
      vertex 2.14283 -20.3877 66.5
      vertex 6.33485 -19.4967 -62
      vertex 2.14283 -20.3877 -62
    endloop
  endfacet
  facet normal -0.866019 0.500011 0
    outer loop
      vertex 16.5848 -12.0496 -62
      vertex 18.7277 -8.3381 66.5
      vertex 18.7277 -8.3381 -62
    endloop
  endfacet
  facet normal -0.866019 0.500011 0
    outer loop
      vertex 18.7277 -8.3381 66.5
      vertex 16.5848 -12.0496 -62
      vertex 16.5848 -12.0496 66.5
    endloop
  endfacet
  facet normal 0.587775 0.809025 -0
    outer loop
      vertex -10.25 -17.7535 -62
      vertex -13.7172 -15.2345 66.5
      vertex -10.25 -17.7535 66.5
    endloop
  endfacet
  facet normal 0.587775 0.809025 0
    outer loop
      vertex -13.7172 -15.2345 66.5
      vertex -10.25 -17.7535 -62
      vertex -13.7172 -15.2345 -62
    endloop
  endfacet
  facet normal 0.866019 0.500011 0
    outer loop
      vertex -16.5848 -12.0496 66.5
      vertex -18.7277 -8.3381 -62
      vertex -18.7277 -8.3381 66.5
    endloop
  endfacet
  facet normal 0.866019 0.500011 0
    outer loop
      vertex -18.7277 -8.3381 -62
      vertex -16.5848 -12.0496 66.5
      vertex -16.5848 -12.0496 -62
    endloop
  endfacet
  facet normal 0.743156 0.669118 0
    outer loop
      vertex -13.7172 -15.2345 66.5
      vertex -16.5848 -12.0496 -62
      vertex -16.5848 -12.0496 66.5
    endloop
  endfacet
  facet normal 0.743156 0.669118 0
    outer loop
      vertex -16.5848 -12.0496 -62
      vertex -13.7172 -15.2345 66.5
      vertex -13.7172 -15.2345 -62
    endloop
  endfacet
  facet normal -0.587775 0.809025 0
    outer loop
      vertex 13.7172 -15.2345 -62
      vertex 10.25 -17.7535 66.5
      vertex 13.7172 -15.2345 66.5
    endloop
  endfacet
  facet normal -0.587775 0.809025 0
    outer loop
      vertex 10.25 -17.7535 66.5
      vertex 13.7172 -15.2345 -62
      vertex 10.25 -17.7535 -62
    endloop
  endfacet
  facet normal -0.406749 0.91354 0
    outer loop
      vertex 10.25 -17.7535 -62
      vertex 6.33485 -19.4967 66.5
      vertex 10.25 -17.7535 66.5
    endloop
  endfacet
  facet normal -0.406749 0.91354 0
    outer loop
      vertex 6.33485 -19.4967 66.5
      vertex 10.25 -17.7535 -62
      vertex 6.33485 -19.4967 -62
    endloop
  endfacet
  facet normal 0.207902 0.97815 -0
    outer loop
      vertex -2.14283 -20.3877 -62
      vertex -6.33485 -19.4967 66.5
      vertex -2.14283 -20.3877 66.5
    endloop
  endfacet
  facet normal 0.207902 0.97815 0
    outer loop
      vertex -6.33485 -19.4967 66.5
      vertex -2.14283 -20.3877 -62
      vertex -6.33485 -19.4967 -62
    endloop
  endfacet
  facet normal 0.951059 0.309008 0
    outer loop
      vertex -18.7277 -8.3381 66.5
      vertex -20.052 -4.26219 -62
      vertex -20.052 -4.26219 66.5
    endloop
  endfacet
  facet normal 0.951059 0.309008 0
    outer loop
      vertex -20.052 -4.26219 -62
      vertex -18.7277 -8.3381 66.5
      vertex -18.7277 -8.3381 -62
    endloop
  endfacet
  facet normal 0.994521 0.104534 0
    outer loop
      vertex -20.052 -4.26219 66.5
      vertex -20.5 0 -62
      vertex -20.5 0 66.5
    endloop
  endfacet
  facet normal 0.994521 0.104534 0
    outer loop
      vertex -20.5 0 -62
      vertex -20.052 -4.26219 66.5
      vertex -20.052 -4.26219 -62
    endloop
  endfacet
  facet normal -0.743156 0.669118 0
    outer loop
      vertex 13.7172 -15.2345 -62
      vertex 16.5848 -12.0496 66.5
      vertex 16.5848 -12.0496 -62
    endloop
  endfacet
  facet normal -0.743156 0.669118 0
    outer loop
      vertex 16.5848 -12.0496 66.5
      vertex 13.7172 -15.2345 -62
      vertex 13.7172 -15.2345 66.5
    endloop
  endfacet
  facet normal 0.406749 0.91354 -0
    outer loop
      vertex -6.33485 -19.4967 -62
      vertex -10.25 -17.7535 66.5
      vertex -6.33485 -19.4967 66.5
    endloop
  endfacet
  facet normal 0.406749 0.91354 0
    outer loop
      vertex -10.25 -17.7535 66.5
      vertex -6.33485 -19.4967 -62
      vertex -10.25 -17.7535 -62
    endloop
  endfacet
endsolid OpenSCAD_Model
