solid OpenSCAD_Model
  facet normal -1 0 0
    outer loop
      vertex -120.5 -57 -12.5
      vertex -120.5 57 12.5
      vertex -120.5 57 -12.5
    endloop
  endfacet
  facet normal -1 -0 0
    outer loop
      vertex -120.5 57 12.5
      vertex -120.5 -57 -12.5
      vertex -120.5 -57 12.5
    endloop
  endfacet
  facet normal 0 0 1
    outer loop
      vertex 120.5 57 12.5
      vertex 115.5 52 12.5
      vertex 120.5 -57 12.5
    endloop
  endfacet
  facet normal 0 0 1
    outer loop
      vertex 120.5 57 12.5
      vertex -115.5 52 12.5
      vertex 115.5 52 12.5
    endloop
  endfacet
  facet normal 0 0 1
    outer loop
      vertex -115.5 52 12.5
      vertex -120.5 57 12.5
      vertex -115.5 -52 12.5
    endloop
  endfacet
  facet normal -0 0 1
    outer loop
      vertex -120.5 57 12.5
      vertex -115.5 52 12.5
      vertex 120.5 57 12.5
    endloop
  endfacet
  facet normal -0 0 1
    outer loop
      vertex 115.5 -52 12.5
      vertex 120.5 -57 12.5
      vertex 115.5 52 12.5
    endloop
  endfacet
  facet normal -0 0 1
    outer loop
      vertex -115.5 -52 12.5
      vertex 120.5 -57 12.5
      vertex 115.5 -52 12.5
    endloop
  endfacet
  facet normal 0 0 1
    outer loop
      vertex -115.5 -52 12.5
      vertex -120.5 -57 12.5
      vertex 120.5 -57 12.5
    endloop
  endfacet
  facet normal 0 0 1
    outer loop
      vertex -120.5 -57 12.5
      vertex -115.5 -52 12.5
      vertex -120.5 57 12.5
    endloop
  endfacet
  facet normal 1 -0 0
    outer loop
      vertex 120.5 -57 12.5
      vertex 120.5 57 -12.5
      vertex 120.5 57 12.5
    endloop
  endfacet
  facet normal 1 0 0
    outer loop
      vertex 120.5 57 -12.5
      vertex 120.5 -57 12.5
      vertex 120.5 -57 -12.5
    endloop
  endfacet
  facet normal 0 1 -0
    outer loop
      vertex 120.5 57 -12.5
      vertex -120.5 57 12.5
      vertex 120.5 57 12.5
    endloop
  endfacet
  facet normal 0 1 0
    outer loop
      vertex -120.5 57 12.5
      vertex 120.5 57 -12.5
      vertex -120.5 57 -12.5
    endloop
  endfacet
  facet normal 0 0 -1
    outer loop
      vertex 120.5 -57 -12.5
      vertex 115.5 -52 -12.5
      vertex 120.5 57 -12.5
    endloop
  endfacet
  facet normal 0 0 -1
    outer loop
      vertex 120.5 -57 -12.5
      vertex -115.5 -52 -12.5
      vertex 115.5 -52 -12.5
    endloop
  endfacet
  facet normal -0 0 -1
    outer loop
      vertex -115.5 -52 -12.5
      vertex -120.5 -57 -12.5
      vertex -115.5 52 -12.5
    endloop
  endfacet
  facet normal 0 0 -1
    outer loop
      vertex -120.5 -57 -12.5
      vertex -115.5 -52 -12.5
      vertex 120.5 -57 -12.5
    endloop
  endfacet
  facet normal 0 0 -1
    outer loop
      vertex 115.5 52 -12.5
      vertex 120.5 57 -12.5
      vertex 115.5 -52 -12.5
    endloop
  endfacet
  facet normal 0 0 -1
    outer loop
      vertex -115.5 52 -12.5
      vertex 120.5 57 -12.5
      vertex 115.5 52 -12.5
    endloop
  endfacet
  facet normal 0 0 -1
    outer loop
      vertex -115.5 52 -12.5
      vertex -120.5 57 -12.5
      vertex 120.5 57 -12.5
    endloop
  endfacet
  facet normal 0 0 -1
    outer loop
      vertex -120.5 57 -12.5
      vertex -115.5 52 -12.5
      vertex -120.5 -57 -12.5
    endloop
  endfacet
  facet normal 0 -1 0
    outer loop
      vertex -120.5 -57 -12.5
      vertex 120.5 -57 12.5
      vertex -120.5 -57 12.5
    endloop
  endfacet
  facet normal 0 -1 -0
    outer loop
      vertex 120.5 -57 12.5
      vertex -120.5 -57 -12.5
      vertex 120.5 -57 -12.5
    endloop
  endfacet
  facet normal 1 -0 0
    outer loop
      vertex -115.5 -52 12.5
      vertex -115.5 52 -12.5
      vertex -115.5 52 12.5
    endloop
  endfacet
  facet normal 1 0 0
    outer loop
      vertex -115.5 52 -12.5
      vertex -115.5 -52 12.5
      vertex -115.5 -52 -12.5
    endloop
  endfacet
  facet normal -1 0 0
    outer loop
      vertex 115.5 -52 -12.5
      vertex 115.5 52 12.5
      vertex 115.5 52 -12.5
    endloop
  endfacet
  facet normal -1 -0 0
    outer loop
      vertex 115.5 52 12.5
      vertex 115.5 -52 -12.5
      vertex 115.5 -52 12.5
    endloop
  endfacet
  facet normal 0 -1 0
    outer loop
      vertex -115.5 52 -12.5
      vertex 115.5 52 12.5
      vertex -115.5 52 12.5
    endloop
  endfacet
  facet normal 0 -1 -0
    outer loop
      vertex 115.5 52 12.5
      vertex -115.5 52 -12.5
      vertex 115.5 52 -12.5
    endloop
  endfacet
  facet normal 0 1 -0
    outer loop
      vertex 115.5 -52 -12.5
      vertex -115.5 -52 12.5
      vertex 115.5 -52 12.5
    endloop
  endfacet
  facet normal 0 1 0
    outer loop
      vertex -115.5 -52 12.5
      vertex 115.5 -52 -12.5
      vertex -115.5 -52 -12.5
    endloop
  endfacet
endsolid OpenSCAD_Model
