solid OpenSCAD_Model
  facet normal -1 0 0
    outer loop
      vertex -22 -22 -70
      vertex -22 10 70
      vertex -22 10 -70
    endloop
  endfacet
  facet normal -1 -0 0
    outer loop
      vertex -22 10 70
      vertex -22 -22 -70
      vertex -22 -22 70
    endloop
  endfacet
  facet normal 0 0 1
    outer loop
      vertex -20.052 4.26219 70
      vertex -22 10 70
      vertex -20.5 0 70
    endloop
  endfacet
  facet normal 0 0 1
    outer loop
      vertex -18.7277 8.3381 70
      vertex -22 10 70
      vertex -20.052 4.26219 70
    endloop
  endfacet
  facet normal -0 0 1
    outer loop
      vertex -22 10 70
      vertex -18.7277 8.3381 70
      vertex -17.7682 10 70
    endloop
  endfacet
  facet normal 0 0 1
    outer loop
      vertex 22 10 70
      vertex 20.5 0 70
      vertex 22 -22 70
    endloop
  endfacet
  facet normal 0 0 1
    outer loop
      vertex 22 10 70
      vertex 20.052 4.26219 70
      vertex 20.5 0 70
    endloop
  endfacet
  facet normal 0 0 1
    outer loop
      vertex 22 10 70
      vertex 18.7277 8.3381 70
      vertex 20.052 4.26219 70
    endloop
  endfacet
  facet normal 0 -0 1
    outer loop
      vertex 18.7277 8.3381 70
      vertex 22 10 70
      vertex 17.7682 10 70
    endloop
  endfacet
  facet normal -0 0 1
    outer loop
      vertex 20.052 -4.26219 70
      vertex 22 -22 70
      vertex 20.5 0 70
    endloop
  endfacet
  facet normal -0 0 1
    outer loop
      vertex 18.7277 -8.3381 70
      vertex 22 -22 70
      vertex 20.052 -4.26219 70
    endloop
  endfacet
  facet normal -0 0 1
    outer loop
      vertex 16.5848 -12.0496 70
      vertex 22 -22 70
      vertex 18.7277 -8.3381 70
    endloop
  endfacet
  facet normal -0 0 1
    outer loop
      vertex 13.7172 -15.2345 70
      vertex 22 -22 70
      vertex 16.5848 -12.0496 70
    endloop
  endfacet
  facet normal -0 0 1
    outer loop
      vertex 10.25 -17.7535 70
      vertex 22 -22 70
      vertex 13.7172 -15.2345 70
    endloop
  endfacet
  facet normal -0 0 1
    outer loop
      vertex 6.33485 -19.4967 70
      vertex 22 -22 70
      vertex 10.25 -17.7535 70
    endloop
  endfacet
  facet normal -0 0 1
    outer loop
      vertex 2.14283 -20.3877 70
      vertex 22 -22 70
      vertex 6.33485 -19.4967 70
    endloop
  endfacet
  facet normal -0 0 1
    outer loop
      vertex -2.14283 -20.3877 70
      vertex 22 -22 70
      vertex 2.14283 -20.3877 70
    endloop
  endfacet
  facet normal 0 0 1
    outer loop
      vertex -22 -22 70
      vertex -20.5 0 70
      vertex -22 10 70
    endloop
  endfacet
  facet normal 0 0 1
    outer loop
      vertex -2.14283 -20.3877 70
      vertex -22 -22 70
      vertex 22 -22 70
    endloop
  endfacet
  facet normal 0 0 1
    outer loop
      vertex -6.33485 -19.4967 70
      vertex -22 -22 70
      vertex -2.14283 -20.3877 70
    endloop
  endfacet
  facet normal 0 0 1
    outer loop
      vertex -10.25 -17.7535 70
      vertex -22 -22 70
      vertex -6.33485 -19.4967 70
    endloop
  endfacet
  facet normal 0 0 1
    outer loop
      vertex -13.7172 -15.2345 70
      vertex -22 -22 70
      vertex -10.25 -17.7535 70
    endloop
  endfacet
  facet normal 0 0 1
    outer loop
      vertex -16.5848 -12.0496 70
      vertex -22 -22 70
      vertex -13.7172 -15.2345 70
    endloop
  endfacet
  facet normal 0 0 1
    outer loop
      vertex -18.7277 -8.3381 70
      vertex -22 -22 70
      vertex -16.5848 -12.0496 70
    endloop
  endfacet
  facet normal 0 0 1
    outer loop
      vertex -20.052 -4.26219 70
      vertex -22 -22 70
      vertex -18.7277 -8.3381 70
    endloop
  endfacet
  facet normal 0 0 1
    outer loop
      vertex -20.5 0 70
      vertex -22 -22 70
      vertex -20.052 -4.26219 70
    endloop
  endfacet
  facet normal 1 -0 0
    outer loop
      vertex 22 -22 70
      vertex 22 10 -70
      vertex 22 10 70
    endloop
  endfacet
  facet normal 1 0 0
    outer loop
      vertex 22 10 -70
      vertex 22 -22 70
      vertex 22 -22 -70
    endloop
  endfacet
  facet normal 0 0 -1
    outer loop
      vertex 22 -22 -70
      vertex 20.5 0 -70
      vertex 22 10 -70
    endloop
  endfacet
  facet normal 0 0 -1
    outer loop
      vertex 22 -22 -70
      vertex 20.052 -4.26219 -70
      vertex 20.5 0 -70
    endloop
  endfacet
  facet normal 0 0 -1
    outer loop
      vertex 22 -22 -70
      vertex 18.7277 -8.3381 -70
      vertex 20.052 -4.26219 -70
    endloop
  endfacet
  facet normal 0 0 -1
    outer loop
      vertex 22 -22 -70
      vertex 16.5848 -12.0496 -70
      vertex 18.7277 -8.3381 -70
    endloop
  endfacet
  facet normal 0 0 -1
    outer loop
      vertex 22 -22 -70
      vertex 13.7172 -15.2345 -70
      vertex 16.5848 -12.0496 -70
    endloop
  endfacet
  facet normal 0 0 -1
    outer loop
      vertex 22 -22 -70
      vertex 10.25 -17.7535 -70
      vertex 13.7172 -15.2345 -70
    endloop
  endfacet
  facet normal 0 0 -1
    outer loop
      vertex 22 -22 -70
      vertex 6.33485 -19.4967 -70
      vertex 10.25 -17.7535 -70
    endloop
  endfacet
  facet normal 0 0 -1
    outer loop
      vertex 22 -22 -70
      vertex 2.14283 -20.3877 -70
      vertex 6.33485 -19.4967 -70
    endloop
  endfacet
  facet normal 0 0 -1
    outer loop
      vertex 22 -22 -70
      vertex -2.14283 -20.3877 -70
      vertex 2.14283 -20.3877 -70
    endloop
  endfacet
  facet normal -0 0 -1
    outer loop
      vertex -20.052 -4.26219 -70
      vertex -22 -22 -70
      vertex -20.5 0 -70
    endloop
  endfacet
  facet normal -0 0 -1
    outer loop
      vertex -18.7277 -8.3381 -70
      vertex -22 -22 -70
      vertex -20.052 -4.26219 -70
    endloop
  endfacet
  facet normal -0 0 -1
    outer loop
      vertex -16.5848 -12.0496 -70
      vertex -22 -22 -70
      vertex -18.7277 -8.3381 -70
    endloop
  endfacet
  facet normal -0 0 -1
    outer loop
      vertex -13.7172 -15.2345 -70
      vertex -22 -22 -70
      vertex -16.5848 -12.0496 -70
    endloop
  endfacet
  facet normal -0 0 -1
    outer loop
      vertex -10.25 -17.7535 -70
      vertex -22 -22 -70
      vertex -13.7172 -15.2345 -70
    endloop
  endfacet
  facet normal -0 0 -1
    outer loop
      vertex -6.33485 -19.4967 -70
      vertex -22 -22 -70
      vertex -10.25 -17.7535 -70
    endloop
  endfacet
  facet normal -0 0 -1
    outer loop
      vertex -2.14283 -20.3877 -70
      vertex -22 -22 -70
      vertex -6.33485 -19.4967 -70
    endloop
  endfacet
  facet normal 0 0 -1
    outer loop
      vertex -22 -22 -70
      vertex -2.14283 -20.3877 -70
      vertex 22 -22 -70
    endloop
  endfacet
  facet normal 0 0 -1
    outer loop
      vertex 20.052 4.26219 -70
      vertex 22 10 -70
      vertex 20.5 0 -70
    endloop
  endfacet
  facet normal 0 0 -1
    outer loop
      vertex 18.7277 8.3381 -70
      vertex 22 10 -70
      vertex 20.052 4.26219 -70
    endloop
  endfacet
  facet normal -0 0 -1
    outer loop
      vertex 22 10 -70
      vertex 18.7277 8.3381 -70
      vertex 17.7682 10 -70
    endloop
  endfacet
  facet normal 0 0 -1
    outer loop
      vertex -18.7277 8.3381 -70
      vertex -22 10 -70
      vertex -17.7682 10 -70
    endloop
  endfacet
  facet normal 0 0 -1
    outer loop
      vertex -20.052 4.26219 -70
      vertex -22 10 -70
      vertex -18.7277 8.3381 -70
    endloop
  endfacet
  facet normal 0 0 -1
    outer loop
      vertex -20.5 0 -70
      vertex -22 10 -70
      vertex -20.052 4.26219 -70
    endloop
  endfacet
  facet normal 0 0 -1
    outer loop
      vertex -22 10 -70
      vertex -20.5 0 -70
      vertex -22 -22 -70
    endloop
  endfacet
  facet normal 0 -1 0
    outer loop
      vertex -22 -22 -70
      vertex 22 -22 70
      vertex -22 -22 70
    endloop
  endfacet
  facet normal 0 -1 -0
    outer loop
      vertex 22 -22 70
      vertex -22 -22 -70
      vertex 22 -22 -70
    endloop
  endfacet
  facet normal 0.994521 0.104534 0
    outer loop
      vertex 20.5 0 -70
      vertex 20.052 4.26219 -70.1
      vertex 20.052 4.26219 -70
    endloop
  endfacet
  facet normal 0.994521 0.104534 0
    outer loop
      vertex 20.052 4.26219 -70.1
      vertex 20.5 0 -70
      vertex 20.5 0 -70.1
    endloop
  endfacet
  facet normal -0.994521 -0.104534 0
    outer loop
      vertex 20.5 0 -66.7
      vertex 20.052 4.26219 70
      vertex 20.052 4.26219 -66.7
    endloop
  endfacet
  facet normal -0.994521 -0.104534 0
    outer loop
      vertex 20.052 4.26219 70
      vertex 20.5 0 -66.7
      vertex 20.5 0 70
    endloop
  endfacet
  facet normal -0.994521 0.104534 0
    outer loop
      vertex -20.5 0 -70.1
      vertex -20.052 4.26219 -70
      vertex -20.052 4.26219 -70.1
    endloop
  endfacet
  facet normal -0.994521 0.104534 0
    outer loop
      vertex -20.052 4.26219 -70
      vertex -20.5 0 -70.1
      vertex -20.5 0 -70
    endloop
  endfacet
  facet normal 0.994521 -0.104534 0
    outer loop
      vertex -20.5 0 70
      vertex -20.052 4.26219 -66.7
      vertex -20.052 4.26219 70
    endloop
  endfacet
  facet normal 0.994521 -0.104534 0
    outer loop
      vertex -20.052 4.26219 -66.7
      vertex -20.5 0 70
      vertex -20.5 0 -66.7
    endloop
  endfacet
  facet normal 0 -1 0
    outer loop
      vertex -2.14283 -20.3877 -70.1
      vertex 2.14283 -20.3877 -70
      vertex -2.14283 -20.3877 -70
    endloop
  endfacet
  facet normal 0 -1 -0
    outer loop
      vertex 2.14283 -20.3877 -70
      vertex -2.14283 -20.3877 -70.1
      vertex 2.14283 -20.3877 -70.1
    endloop
  endfacet
  facet normal 0 1 -0
    outer loop
      vertex 2.14283 -20.3877 -66.7
      vertex -2.14283 -20.3877 70
      vertex 2.14283 -20.3877 70
    endloop
  endfacet
  facet normal 0 1 0
    outer loop
      vertex -2.14283 -20.3877 70
      vertex 2.14283 -20.3877 -66.7
      vertex -2.14283 -20.3877 -66.7
    endloop
  endfacet
  facet normal 0.951059 0.309008 0
    outer loop
      vertex 20.052 4.26219 -70
      vertex 18.7277 8.3381 -70.1
      vertex 18.7277 8.3381 -70
    endloop
  endfacet
  facet normal 0.951059 0.309008 0
    outer loop
      vertex 18.7277 8.3381 -70.1
      vertex 20.052 4.26219 -70
      vertex 20.052 4.26219 -70.1
    endloop
  endfacet
  facet normal -0.951059 -0.309008 0
    outer loop
      vertex 20.052 4.26219 -66.7
      vertex 18.7277 8.3381 70
      vertex 18.7277 8.3381 -66.7
    endloop
  endfacet
  facet normal -0.951059 -0.309008 0
    outer loop
      vertex 18.7277 8.3381 70
      vertex 20.052 4.26219 -66.7
      vertex 20.052 4.26219 70
    endloop
  endfacet
  facet normal 0.951059 -0.309008 0
    outer loop
      vertex 18.7277 -8.3381 -70
      vertex 20.052 -4.26219 -70.1
      vertex 20.052 -4.26219 -70
    endloop
  endfacet
  facet normal 0.951059 -0.309008 0
    outer loop
      vertex 20.052 -4.26219 -70.1
      vertex 18.7277 -8.3381 -70
      vertex 18.7277 -8.3381 -70.1
    endloop
  endfacet
  facet normal -0.951059 0.309008 0
    outer loop
      vertex 18.7277 -8.3381 -66.7
      vertex 20.052 -4.26219 70
      vertex 20.052 -4.26219 -66.7
    endloop
  endfacet
  facet normal -0.951059 0.309008 0
    outer loop
      vertex 20.052 -4.26219 70
      vertex 18.7277 -8.3381 -66.7
      vertex 18.7277 -8.3381 70
    endloop
  endfacet
  facet normal 0.866014 0.50002 -0
    outer loop
      vertex 17.7682 10 -70
      vertex 16.5848 12.0496 -66.7
      vertex 17.7682 10 -66.7
    endloop
  endfacet
  facet normal 0.866014 0.50002 0
    outer loop
      vertex 16.5848 12.0496 -66.7
      vertex 17.7682 10 -70
      vertex 16.5848 12.0496 -70.1
    endloop
  endfacet
  facet normal 0.866025 0.500001 -0
    outer loop
      vertex 18.7277 8.3381 -70.1
      vertex 17.7682 10 -70
      vertex 18.7277 8.3381 -70
    endloop
  endfacet
  facet normal 0.866019 0.500011 -0.000236274
    outer loop
      vertex 17.7682 10 -70
      vertex 18.7277 8.3381 -70.1
      vertex 16.5848 12.0496 -70.1
    endloop
  endfacet
  facet normal -0.866025 -0.500001 0
    outer loop
      vertex 18.7277 8.3381 -66.7
      vertex 17.7682 10 70
      vertex 17.7682 10 -66.7
    endloop
  endfacet
  facet normal -0.866025 -0.500001 0
    outer loop
      vertex 17.7682 10 70
      vertex 18.7277 8.3381 -66.7
      vertex 18.7277 8.3381 70
    endloop
  endfacet
  facet normal -0.866014 0.50002 0
    outer loop
      vertex -16.5848 12.0496 -70.1
      vertex -17.7682 10 -70
      vertex -16.5848 12.0496 -66.7
    endloop
  endfacet
  facet normal -0.866019 0.500011 -0.000236274
    outer loop
      vertex -18.7277 8.3381 -70.1
      vertex -17.7682 10 -70
      vertex -16.5848 12.0496 -70.1
    endloop
  endfacet
  facet normal -0.866025 0.500001 0
    outer loop
      vertex -17.7682 10 -70
      vertex -18.7277 8.3381 -70.1
      vertex -18.7277 8.3381 -70
    endloop
  endfacet
  facet normal -0.866014 0.50002 0
    outer loop
      vertex -16.5848 12.0496 -66.7
      vertex -17.7682 10 -70
      vertex -17.7682 10 -66.7
    endloop
  endfacet
  facet normal 0.866025 -0.500001 0
    outer loop
      vertex -18.7277 8.3381 70
      vertex -17.7682 10 -66.7
      vertex -17.7682 10 70
    endloop
  endfacet
  facet normal 0.866025 -0.500001 0
    outer loop
      vertex -17.7682 10 -66.7
      vertex -18.7277 8.3381 70
      vertex -18.7277 8.3381 -66.7
    endloop
  endfacet
  facet normal -0.951059 0.309008 0
    outer loop
      vertex -20.052 4.26219 -70.1
      vertex -18.7277 8.3381 -70
      vertex -18.7277 8.3381 -70.1
    endloop
  endfacet
  facet normal -0.951059 0.309008 0
    outer loop
      vertex -18.7277 8.3381 -70
      vertex -20.052 4.26219 -70.1
      vertex -20.052 4.26219 -70
    endloop
  endfacet
  facet normal 0.951059 -0.309008 0
    outer loop
      vertex -20.052 4.26219 70
      vertex -18.7277 8.3381 -66.7
      vertex -18.7277 8.3381 70
    endloop
  endfacet
  facet normal 0.951059 -0.309008 0
    outer loop
      vertex -18.7277 8.3381 -66.7
      vertex -20.052 4.26219 70
      vertex -20.052 4.26219 -66.7
    endloop
  endfacet
  facet normal 0.994521 -0.104534 0
    outer loop
      vertex 20.052 -4.26219 -70
      vertex 20.5 0 -70.1
      vertex 20.5 0 -70
    endloop
  endfacet
  facet normal 0.994521 -0.104534 0
    outer loop
      vertex 20.5 0 -70.1
      vertex 20.052 -4.26219 -70
      vertex 20.052 -4.26219 -70.1
    endloop
  endfacet
  facet normal -0.994521 0.104534 0
    outer loop
      vertex 20.052 -4.26219 -66.7
      vertex 20.5 0 70
      vertex 20.5 0 -66.7
    endloop
  endfacet
  facet normal -0.994521 0.104534 0
    outer loop
      vertex 20.5 0 70
      vertex 20.052 -4.26219 -66.7
      vertex 20.052 -4.26219 70
    endloop
  endfacet
  facet normal 0.207902 -0.97815 0
    outer loop
      vertex 2.14283 -20.3877 -70.1
      vertex 6.33485 -19.4967 -70
      vertex 2.14283 -20.3877 -70
    endloop
  endfacet
  facet normal 0.207902 -0.97815 0
    outer loop
      vertex 6.33485 -19.4967 -70
      vertex 2.14283 -20.3877 -70.1
      vertex 6.33485 -19.4967 -70.1
    endloop
  endfacet
  facet normal -0.207902 0.97815 0
    outer loop
      vertex 6.33485 -19.4967 -66.7
      vertex 2.14283 -20.3877 70
      vertex 6.33485 -19.4967 70
    endloop
  endfacet
  facet normal -0.207902 0.97815 0
    outer loop
      vertex 2.14283 -20.3877 70
      vertex 6.33485 -19.4967 -66.7
      vertex 2.14283 -20.3877 -66.7
    endloop
  endfacet
  facet normal 0.866019 -0.500011 0
    outer loop
      vertex 16.5848 -12.0496 -70
      vertex 18.7277 -8.3381 -70.1
      vertex 18.7277 -8.3381 -70
    endloop
  endfacet
  facet normal 0.866019 -0.500011 0
    outer loop
      vertex 18.7277 -8.3381 -70.1
      vertex 16.5848 -12.0496 -70
      vertex 16.5848 -12.0496 -70.1
    endloop
  endfacet
  facet normal -0.866019 0.500011 0
    outer loop
      vertex 16.5848 -12.0496 -66.7
      vertex 18.7277 -8.3381 70
      vertex 18.7277 -8.3381 -66.7
    endloop
  endfacet
  facet normal -0.866019 0.500011 0
    outer loop
      vertex 18.7277 -8.3381 70
      vertex 16.5848 -12.0496 -66.7
      vertex 16.5848 -12.0496 70
    endloop
  endfacet
  facet normal -0.587775 -0.809025 0
    outer loop
      vertex -13.7172 -15.2345 -70.1
      vertex -10.25 -17.7535 -70
      vertex -13.7172 -15.2345 -70
    endloop
  endfacet
  facet normal -0.587775 -0.809025 -0
    outer loop
      vertex -10.25 -17.7535 -70
      vertex -13.7172 -15.2345 -70.1
      vertex -10.25 -17.7535 -70.1
    endloop
  endfacet
  facet normal 0.587775 0.809025 -0
    outer loop
      vertex -10.25 -17.7535 -66.7
      vertex -13.7172 -15.2345 70
      vertex -10.25 -17.7535 70
    endloop
  endfacet
  facet normal 0.587775 0.809025 0
    outer loop
      vertex -13.7172 -15.2345 70
      vertex -10.25 -17.7535 -66.7
      vertex -13.7172 -15.2345 -66.7
    endloop
  endfacet
  facet normal -0.866019 -0.500011 0
    outer loop
      vertex -16.5848 -12.0496 -70.1
      vertex -18.7277 -8.3381 -70
      vertex -18.7277 -8.3381 -70.1
    endloop
  endfacet
  facet normal -0.866019 -0.500011 0
    outer loop
      vertex -18.7277 -8.3381 -70
      vertex -16.5848 -12.0496 -70.1
      vertex -16.5848 -12.0496 -70
    endloop
  endfacet
  facet normal 0.866019 0.500011 0
    outer loop
      vertex -16.5848 -12.0496 70
      vertex -18.7277 -8.3381 -66.7
      vertex -18.7277 -8.3381 70
    endloop
  endfacet
  facet normal 0.866019 0.500011 0
    outer loop
      vertex -18.7277 -8.3381 -66.7
      vertex -16.5848 -12.0496 70
      vertex -16.5848 -12.0496 -66.7
    endloop
  endfacet
  facet normal -0.743156 -0.669118 0
    outer loop
      vertex -13.7172 -15.2345 -70.1
      vertex -16.5848 -12.0496 -70
      vertex -16.5848 -12.0496 -70.1
    endloop
  endfacet
  facet normal -0.743156 -0.669118 0
    outer loop
      vertex -16.5848 -12.0496 -70
      vertex -13.7172 -15.2345 -70.1
      vertex -13.7172 -15.2345 -70
    endloop
  endfacet
  facet normal 0.743156 0.669118 0
    outer loop
      vertex -13.7172 -15.2345 70
      vertex -16.5848 -12.0496 -66.7
      vertex -16.5848 -12.0496 70
    endloop
  endfacet
  facet normal 0.743156 0.669118 0
    outer loop
      vertex -16.5848 -12.0496 -66.7
      vertex -13.7172 -15.2345 70
      vertex -13.7172 -15.2345 -66.7
    endloop
  endfacet
  facet normal 0.994521 0.104534 0
    outer loop
      vertex -20.052 -4.26219 70
      vertex -20.5 0 -66.7
      vertex -20.5 0 70
    endloop
  endfacet
  facet normal 0.994521 0.104534 0
    outer loop
      vertex -20.5 0 -66.7
      vertex -20.052 -4.26219 70
      vertex -20.052 -4.26219 -66.7
    endloop
  endfacet
  facet normal -0.994521 -0.104534 0
    outer loop
      vertex -20.052 -4.26219 -70.1
      vertex -20.5 0 -70
      vertex -20.5 0 -70.1
    endloop
  endfacet
  facet normal -0.994521 -0.104534 0
    outer loop
      vertex -20.5 0 -70
      vertex -20.052 -4.26219 -70.1
      vertex -20.052 -4.26219 -70
    endloop
  endfacet
  facet normal 0.587775 -0.809025 0
    outer loop
      vertex 10.25 -17.7535 -70.1
      vertex 13.7172 -15.2345 -70
      vertex 10.25 -17.7535 -70
    endloop
  endfacet
  facet normal 0.587775 -0.809025 0
    outer loop
      vertex 13.7172 -15.2345 -70
      vertex 10.25 -17.7535 -70.1
      vertex 13.7172 -15.2345 -70.1
    endloop
  endfacet
  facet normal -0.587775 0.809025 0
    outer loop
      vertex 13.7172 -15.2345 -66.7
      vertex 10.25 -17.7535 70
      vertex 13.7172 -15.2345 70
    endloop
  endfacet
  facet normal -0.587775 0.809025 0
    outer loop
      vertex 10.25 -17.7535 70
      vertex 13.7172 -15.2345 -66.7
      vertex 10.25 -17.7535 -66.7
    endloop
  endfacet
  facet normal -0.406749 0.91354 0
    outer loop
      vertex 10.25 -17.7535 -66.7
      vertex 6.33485 -19.4967 70
      vertex 10.25 -17.7535 70
    endloop
  endfacet
  facet normal -0.406749 0.91354 0
    outer loop
      vertex 6.33485 -19.4967 70
      vertex 10.25 -17.7535 -66.7
      vertex 6.33485 -19.4967 -66.7
    endloop
  endfacet
  facet normal 0.406749 -0.91354 0
    outer loop
      vertex 6.33485 -19.4967 -70.1
      vertex 10.25 -17.7535 -70
      vertex 6.33485 -19.4967 -70
    endloop
  endfacet
  facet normal 0.406749 -0.91354 0
    outer loop
      vertex 10.25 -17.7535 -70
      vertex 6.33485 -19.4967 -70.1
      vertex 10.25 -17.7535 -70.1
    endloop
  endfacet
  facet normal -0.207902 -0.97815 0
    outer loop
      vertex -6.33485 -19.4967 -70.1
      vertex -2.14283 -20.3877 -70
      vertex -6.33485 -19.4967 -70
    endloop
  endfacet
  facet normal -0.207902 -0.97815 -0
    outer loop
      vertex -2.14283 -20.3877 -70
      vertex -6.33485 -19.4967 -70.1
      vertex -2.14283 -20.3877 -70.1
    endloop
  endfacet
  facet normal 0.207902 0.97815 -0
    outer loop
      vertex -2.14283 -20.3877 -66.7
      vertex -6.33485 -19.4967 70
      vertex -2.14283 -20.3877 70
    endloop
  endfacet
  facet normal 0.207902 0.97815 0
    outer loop
      vertex -6.33485 -19.4967 70
      vertex -2.14283 -20.3877 -66.7
      vertex -6.33485 -19.4967 -66.7
    endloop
  endfacet
  facet normal 0.951059 0.309008 0
    outer loop
      vertex -18.7277 -8.3381 70
      vertex -20.052 -4.26219 -66.7
      vertex -20.052 -4.26219 70
    endloop
  endfacet
  facet normal 0.951059 0.309008 0
    outer loop
      vertex -20.052 -4.26219 -66.7
      vertex -18.7277 -8.3381 70
      vertex -18.7277 -8.3381 -66.7
    endloop
  endfacet
  facet normal -0.951059 -0.309008 0
    outer loop
      vertex -18.7277 -8.3381 -70.1
      vertex -20.052 -4.26219 -70
      vertex -20.052 -4.26219 -70.1
    endloop
  endfacet
  facet normal -0.951059 -0.309008 0
    outer loop
      vertex -20.052 -4.26219 -70
      vertex -18.7277 -8.3381 -70.1
      vertex -18.7277 -8.3381 -70
    endloop
  endfacet
  facet normal 0.743156 -0.669118 0
    outer loop
      vertex 13.7172 -15.2345 -70
      vertex 16.5848 -12.0496 -70.1
      vertex 16.5848 -12.0496 -70
    endloop
  endfacet
  facet normal 0.743156 -0.669118 0
    outer loop
      vertex 16.5848 -12.0496 -70.1
      vertex 13.7172 -15.2345 -70
      vertex 13.7172 -15.2345 -70.1
    endloop
  endfacet
  facet normal -0.743156 0.669118 0
    outer loop
      vertex 13.7172 -15.2345 -66.7
      vertex 16.5848 -12.0496 70
      vertex 16.5848 -12.0496 -66.7
    endloop
  endfacet
  facet normal -0.743156 0.669118 0
    outer loop
      vertex 16.5848 -12.0496 70
      vertex 13.7172 -15.2345 -66.7
      vertex 13.7172 -15.2345 70
    endloop
  endfacet
  facet normal -0.406749 -0.91354 0
    outer loop
      vertex -10.25 -17.7535 -70.1
      vertex -6.33485 -19.4967 -70
      vertex -10.25 -17.7535 -70
    endloop
  endfacet
  facet normal -0.406749 -0.91354 -0
    outer loop
      vertex -6.33485 -19.4967 -70
      vertex -10.25 -17.7535 -70.1
      vertex -6.33485 -19.4967 -70.1
    endloop
  endfacet
  facet normal 0.406749 0.91354 -0
    outer loop
      vertex -6.33485 -19.4967 -66.7
      vertex -10.25 -17.7535 70
      vertex -6.33485 -19.4967 70
    endloop
  endfacet
  facet normal 0.406749 0.91354 0
    outer loop
      vertex -10.25 -17.7535 70
      vertex -6.33485 -19.4967 -66.7
      vertex -10.25 -17.7535 -66.7
    endloop
  endfacet
  facet normal 0 1 0
    outer loop
      vertex 22 10 70
      vertex 17.7682 10 -66.7
      vertex 17.7682 10 70
    endloop
  endfacet
  facet normal 0 1 -0
    outer loop
      vertex 22 10 -70
      vertex 17.7682 10 -66.7
      vertex 22 10 70
    endloop
  endfacet
  facet normal 0 1 0
    outer loop
      vertex 17.7682 10 -66.7
      vertex 22 10 -70
      vertex 17.7682 10 -70
    endloop
  endfacet
  facet normal 0 1 -0
    outer loop
      vertex -17.7682 10 -66.7
      vertex -22 10 70
      vertex -17.7682 10 70
    endloop
  endfacet
  facet normal 0 1 0
    outer loop
      vertex -22 10 -70
      vertex -17.7682 10 -66.7
      vertex -17.7682 10 -70
    endloop
  endfacet
  facet normal 0 1 0
    outer loop
      vertex -17.7682 10 -66.7
      vertex -22 10 -70
      vertex -22 10 70
    endloop
  endfacet
  facet normal 0 1 -0
    outer loop
      vertex 2.14283 20.3877 -70.1
      vertex -2.14283 20.3877 -66.7
      vertex 2.14283 20.3877 -66.7
    endloop
  endfacet
  facet normal 0 1 0
    outer loop
      vertex -2.14283 20.3877 -66.7
      vertex 2.14283 20.3877 -70.1
      vertex -2.14283 20.3877 -70.1
    endloop
  endfacet
  facet normal 0.743156 0.669118 0
    outer loop
      vertex 16.5848 12.0496 -66.7
      vertex 13.7172 15.2345 -70.1
      vertex 13.7172 15.2345 -66.7
    endloop
  endfacet
  facet normal 0.743156 0.669118 0
    outer loop
      vertex 13.7172 15.2345 -70.1
      vertex 16.5848 12.0496 -66.7
      vertex 16.5848 12.0496 -70.1
    endloop
  endfacet
  facet normal -0.587775 0.809025 0
    outer loop
      vertex -10.25 17.7535 -70.1
      vertex -13.7172 15.2345 -66.7
      vertex -10.25 17.7535 -66.7
    endloop
  endfacet
  facet normal -0.587775 0.809025 0
    outer loop
      vertex -13.7172 15.2345 -66.7
      vertex -10.25 17.7535 -70.1
      vertex -13.7172 15.2345 -70.1
    endloop
  endfacet
  facet normal -0.207902 0.97815 0
    outer loop
      vertex -2.14283 20.3877 -70.1
      vertex -6.33485 19.4967 -66.7
      vertex -2.14283 20.3877 -66.7
    endloop
  endfacet
  facet normal -0.207902 0.97815 0
    outer loop
      vertex -6.33485 19.4967 -66.7
      vertex -2.14283 20.3877 -70.1
      vertex -6.33485 19.4967 -70.1
    endloop
  endfacet
  facet normal 0.406749 0.91354 -0
    outer loop
      vertex 10.25 17.7535 -70.1
      vertex 6.33485 19.4967 -66.7
      vertex 10.25 17.7535 -66.7
    endloop
  endfacet
  facet normal 0.406749 0.91354 0
    outer loop
      vertex 6.33485 19.4967 -66.7
      vertex 10.25 17.7535 -70.1
      vertex 6.33485 19.4967 -70.1
    endloop
  endfacet
  facet normal 0.207902 0.97815 -0
    outer loop
      vertex 6.33485 19.4967 -70.1
      vertex 2.14283 20.3877 -66.7
      vertex 6.33485 19.4967 -66.7
    endloop
  endfacet
  facet normal 0.207902 0.97815 0
    outer loop
      vertex 2.14283 20.3877 -66.7
      vertex 6.33485 19.4967 -70.1
      vertex 2.14283 20.3877 -70.1
    endloop
  endfacet
  facet normal 0.587775 0.809025 -0
    outer loop
      vertex 13.7172 15.2345 -70.1
      vertex 10.25 17.7535 -66.7
      vertex 13.7172 15.2345 -66.7
    endloop
  endfacet
  facet normal 0.587775 0.809025 0
    outer loop
      vertex 10.25 17.7535 -66.7
      vertex 13.7172 15.2345 -70.1
      vertex 10.25 17.7535 -70.1
    endloop
  endfacet
  facet normal -0.743156 0.669118 0
    outer loop
      vertex -16.5848 12.0496 -70.1
      vertex -13.7172 15.2345 -66.7
      vertex -13.7172 15.2345 -70.1
    endloop
  endfacet
  facet normal -0.743156 0.669118 0
    outer loop
      vertex -13.7172 15.2345 -66.7
      vertex -16.5848 12.0496 -70.1
      vertex -16.5848 12.0496 -66.7
    endloop
  endfacet
  facet normal 0 0 1
    outer loop
      vertex 17.7682 10 -66.7
      vertex 20.5 0 -66.7
      vertex 20.052 4.26219 -66.7
    endloop
  endfacet
  facet normal 0 0 1
    outer loop
      vertex 17.7682 10 -66.7
      vertex 20.052 4.26219 -66.7
      vertex 18.7277 8.3381 -66.7
    endloop
  endfacet
  facet normal 0 0 1
    outer loop
      vertex 20.5 0 -66.7
      vertex 17.7682 10 -66.7
      vertex 20.052 -4.26219 -66.7
    endloop
  endfacet
  facet normal 0 0 1
    outer loop
      vertex 20.052 -4.26219 -66.7
      vertex 17.7682 10 -66.7
      vertex 18.7277 -8.3381 -66.7
    endloop
  endfacet
  facet normal 0 0 1
    outer loop
      vertex 13.7172 15.2345 -66.7
      vertex 17.7682 10 -66.7
      vertex 16.5848 12.0496 -66.7
    endloop
  endfacet
  facet normal 0 0 1
    outer loop
      vertex 17.7682 10 -66.7
      vertex 16.5848 -12.0496 -66.7
      vertex 18.7277 -8.3381 -66.7
    endloop
  endfacet
  facet normal 0 0 1
    outer loop
      vertex 10.25 17.7535 -66.7
      vertex 17.7682 10 -66.7
      vertex 13.7172 15.2345 -66.7
    endloop
  endfacet
  facet normal 0 0 1
    outer loop
      vertex 17.7682 10 -66.7
      vertex 13.7172 -15.2345 -66.7
      vertex 16.5848 -12.0496 -66.7
    endloop
  endfacet
  facet normal 0 0 1
    outer loop
      vertex 6.33485 19.4967 -66.7
      vertex 17.7682 10 -66.7
      vertex 10.25 17.7535 -66.7
    endloop
  endfacet
  facet normal 0 0 1
    outer loop
      vertex 17.7682 10 -66.7
      vertex 10.25 -17.7535 -66.7
      vertex 13.7172 -15.2345 -66.7
    endloop
  endfacet
  facet normal 0 0 1
    outer loop
      vertex 17.7682 10 -66.7
      vertex 6.33485 19.4967 -66.7
      vertex 10.25 -17.7535 -66.7
    endloop
  endfacet
  facet normal 0 0 1
    outer loop
      vertex 6.33485 19.4967 -66.7
      vertex 6.33485 -19.4967 -66.7
      vertex 10.25 -17.7535 -66.7
    endloop
  endfacet
  facet normal 0 0 1
    outer loop
      vertex 2.14283 20.3877 -66.7
      vertex 6.33485 -19.4967 -66.7
      vertex 6.33485 19.4967 -66.7
    endloop
  endfacet
  facet normal 0 0 1
    outer loop
      vertex 2.14283 20.3877 -66.7
      vertex 2.14283 -20.3877 -66.7
      vertex 6.33485 -19.4967 -66.7
    endloop
  endfacet
  facet normal -0 0 1
    outer loop
      vertex -2.14283 20.3877 -66.7
      vertex 2.14283 -20.3877 -66.7
      vertex 2.14283 20.3877 -66.7
    endloop
  endfacet
  facet normal 0 0 1
    outer loop
      vertex -2.14283 20.3877 -66.7
      vertex -2.14283 -20.3877 -66.7
      vertex 2.14283 -20.3877 -66.7
    endloop
  endfacet
  facet normal -0 0 1
    outer loop
      vertex -6.33485 19.4967 -66.7
      vertex -2.14283 -20.3877 -66.7
      vertex -2.14283 20.3877 -66.7
    endloop
  endfacet
  facet normal 0 0 1
    outer loop
      vertex -6.33485 19.4967 -66.7
      vertex -6.33485 -19.4967 -66.7
      vertex -2.14283 -20.3877 -66.7
    endloop
  endfacet
  facet normal 0 0 1
    outer loop
      vertex -17.7682 10 -66.7
      vertex -6.33485 19.4967 -66.7
      vertex -10.25 17.7535 -66.7
    endloop
  endfacet
  facet normal 0 0 1
    outer loop
      vertex -6.33485 19.4967 -66.7
      vertex -17.7682 10 -66.7
      vertex -6.33485 -19.4967 -66.7
    endloop
  endfacet
  facet normal 0 0 1
    outer loop
      vertex -17.7682 10 -66.7
      vertex -10.25 17.7535 -66.7
      vertex -13.7172 15.2345 -66.7
    endloop
  endfacet
  facet normal 0 0 1
    outer loop
      vertex -6.33485 -19.4967 -66.7
      vertex -17.7682 10 -66.7
      vertex -10.25 -17.7535 -66.7
    endloop
  endfacet
  facet normal 0 0 1
    outer loop
      vertex -17.7682 10 -66.7
      vertex -13.7172 15.2345 -66.7
      vertex -16.5848 12.0496 -66.7
    endloop
  endfacet
  facet normal 0 0 1
    outer loop
      vertex -10.25 -17.7535 -66.7
      vertex -17.7682 10 -66.7
      vertex -13.7172 -15.2345 -66.7
    endloop
  endfacet
  facet normal 0 0 1
    outer loop
      vertex -13.7172 -15.2345 -66.7
      vertex -17.7682 10 -66.7
      vertex -16.5848 -12.0496 -66.7
    endloop
  endfacet
  facet normal 0 0 1
    outer loop
      vertex -20.052 4.26219 -66.7
      vertex -17.7682 10 -66.7
      vertex -18.7277 8.3381 -66.7
    endloop
  endfacet
  facet normal 0 0 1
    outer loop
      vertex -17.7682 10 -66.7
      vertex -18.7277 -8.3381 -66.7
      vertex -16.5848 -12.0496 -66.7
    endloop
  endfacet
  facet normal 0 0 1
    outer loop
      vertex -20.5 0 -66.7
      vertex -17.7682 10 -66.7
      vertex -20.052 4.26219 -66.7
    endloop
  endfacet
  facet normal 0 0 1
    outer loop
      vertex -17.7682 10 -66.7
      vertex -20.052 -4.26219 -66.7
      vertex -18.7277 -8.3381 -66.7
    endloop
  endfacet
  facet normal 0 0 1
    outer loop
      vertex -17.7682 10 -66.7
      vertex -20.5 0 -66.7
      vertex -20.052 -4.26219 -66.7
    endloop
  endfacet
  facet normal -0.406749 0.91354 0
    outer loop
      vertex -6.33485 19.4967 -70.1
      vertex -10.25 17.7535 -66.7
      vertex -6.33485 19.4967 -66.7
    endloop
  endfacet
  facet normal -0.406749 0.91354 0
    outer loop
      vertex -10.25 17.7535 -66.7
      vertex -6.33485 19.4967 -70.1
      vertex -10.25 17.7535 -70.1
    endloop
  endfacet
  facet normal 0 0 -1
    outer loop
      vertex 20.052 -4.26219 -70.1
      vertex 20.052 4.26219 -70.1
      vertex 20.5 0 -70.1
    endloop
  endfacet
  facet normal 0 0 -1
    outer loop
      vertex 18.7277 -8.3381 -70.1
      vertex 20.052 4.26219 -70.1
      vertex 20.052 -4.26219 -70.1
    endloop
  endfacet
  facet normal 0 0 -1
    outer loop
      vertex 18.7277 -8.3381 -70.1
      vertex 18.7277 8.3381 -70.1
      vertex 20.052 4.26219 -70.1
    endloop
  endfacet
  facet normal 0 0 -1
    outer loop
      vertex 16.5848 -12.0496 -70.1
      vertex 18.7277 8.3381 -70.1
      vertex 18.7277 -8.3381 -70.1
    endloop
  endfacet
  facet normal 0 0 -1
    outer loop
      vertex 16.5848 -12.0496 -70.1
      vertex 16.5848 12.0496 -70.1
      vertex 18.7277 8.3381 -70.1
    endloop
  endfacet
  facet normal 0 0 -1
    outer loop
      vertex 13.7172 -15.2345 -70.1
      vertex 16.5848 12.0496 -70.1
      vertex 16.5848 -12.0496 -70.1
    endloop
  endfacet
  facet normal 0 0 -1
    outer loop
      vertex 13.7172 -15.2345 -70.1
      vertex 13.7172 15.2345 -70.1
      vertex 16.5848 12.0496 -70.1
    endloop
  endfacet
  facet normal 0 0 -1
    outer loop
      vertex 10.25 -17.7535 -70.1
      vertex 13.7172 15.2345 -70.1
      vertex 13.7172 -15.2345 -70.1
    endloop
  endfacet
  facet normal 0 0 -1
    outer loop
      vertex 10.25 -17.7535 -70.1
      vertex 10.25 17.7535 -70.1
      vertex 13.7172 15.2345 -70.1
    endloop
  endfacet
  facet normal 0 0 -1
    outer loop
      vertex 6.33485 -19.4967 -70.1
      vertex 10.25 17.7535 -70.1
      vertex 10.25 -17.7535 -70.1
    endloop
  endfacet
  facet normal 0 0 -1
    outer loop
      vertex 6.33485 -19.4967 -70.1
      vertex 6.33485 19.4967 -70.1
      vertex 10.25 17.7535 -70.1
    endloop
  endfacet
  facet normal 0 0 -1
    outer loop
      vertex 2.14283 -20.3877 -70.1
      vertex 6.33485 19.4967 -70.1
      vertex 6.33485 -19.4967 -70.1
    endloop
  endfacet
  facet normal 0 0 -1
    outer loop
      vertex 2.14283 -20.3877 -70.1
      vertex 2.14283 20.3877 -70.1
      vertex 6.33485 19.4967 -70.1
    endloop
  endfacet
  facet normal 0 0 -1
    outer loop
      vertex -2.14283 -20.3877 -70.1
      vertex 2.14283 20.3877 -70.1
      vertex 2.14283 -20.3877 -70.1
    endloop
  endfacet
  facet normal 0 0 -1
    outer loop
      vertex -2.14283 -20.3877 -70.1
      vertex -2.14283 20.3877 -70.1
      vertex 2.14283 20.3877 -70.1
    endloop
  endfacet
  facet normal 0 0 -1
    outer loop
      vertex -6.33485 -19.4967 -70.1
      vertex -2.14283 20.3877 -70.1
      vertex -2.14283 -20.3877 -70.1
    endloop
  endfacet
  facet normal 0 0 -1
    outer loop
      vertex -6.33485 -19.4967 -70.1
      vertex -6.33485 19.4967 -70.1
      vertex -2.14283 20.3877 -70.1
    endloop
  endfacet
  facet normal 0 0 -1
    outer loop
      vertex -6.33485 -19.4967 -70.1
      vertex -10.25 17.7535 -70.1
      vertex -6.33485 19.4967 -70.1
    endloop
  endfacet
  facet normal 0 0 -1
    outer loop
      vertex -10.25 -17.7535 -70.1
      vertex -10.25 17.7535 -70.1
      vertex -6.33485 -19.4967 -70.1
    endloop
  endfacet
  facet normal 0 0 -1
    outer loop
      vertex -13.7172 -15.2345 -70.1
      vertex -10.25 17.7535 -70.1
      vertex -10.25 -17.7535 -70.1
    endloop
  endfacet
  facet normal 0 0 -1
    outer loop
      vertex -13.7172 -15.2345 -70.1
      vertex -13.7172 15.2345 -70.1
      vertex -10.25 17.7535 -70.1
    endloop
  endfacet
  facet normal 0 0 -1
    outer loop
      vertex -16.5848 -12.0496 -70.1
      vertex -13.7172 15.2345 -70.1
      vertex -13.7172 -15.2345 -70.1
    endloop
  endfacet
  facet normal 0 0 -1
    outer loop
      vertex -16.5848 -12.0496 -70.1
      vertex -16.5848 12.0496 -70.1
      vertex -13.7172 15.2345 -70.1
    endloop
  endfacet
  facet normal 0 0 -1
    outer loop
      vertex -18.7277 -8.3381 -70.1
      vertex -16.5848 12.0496 -70.1
      vertex -16.5848 -12.0496 -70.1
    endloop
  endfacet
  facet normal 0 0 -1
    outer loop
      vertex -18.7277 -8.3381 -70.1
      vertex -18.7277 8.3381 -70.1
      vertex -16.5848 12.0496 -70.1
    endloop
  endfacet
  facet normal 0 0 -1
    outer loop
      vertex -20.052 -4.26219 -70.1
      vertex -18.7277 8.3381 -70.1
      vertex -18.7277 -8.3381 -70.1
    endloop
  endfacet
  facet normal 0 0 -1
    outer loop
      vertex -20.052 -4.26219 -70.1
      vertex -20.052 4.26219 -70.1
      vertex -18.7277 8.3381 -70.1
    endloop
  endfacet
  facet normal 0 -0 -1
    outer loop
      vertex -20.052 4.26219 -70.1
      vertex -20.052 -4.26219 -70.1
      vertex -20.5 0 -70.1
    endloop
  endfacet
endsolid OpenSCAD_Model
